<!-- Generated by IcoMoon.io -->
<svg version="1.1" xmlns="http://www.w3.org/2000/svg" width="65" height="32" viewBox="0 0 65 32">
<title>Droom-Logo</title>
<path fill="#fff" d="M5.5 31.395c0.465-1.418 1.194-3.6 1.405-4.203l0.071-0.204-0.047-0.016c-0.026-0.009-0.054-0.025-0.063-0.036-0.022-0.027-0.028-0.082-0.018-0.157 0.005-0.035 0.010-0.108 0.012-0.162s0.008-0.112 0.013-0.128c0.014-0.043 0.066-0.063 0.162-0.062 0.044 0 0.084-0.002 0.091-0.004 0.015-0.007 0.090-0.369 0.112-0.533 0.024-0.186 0.037-0.416 0.029-0.542-0.010-0.169-0.027-0.251-0.076-0.357-0.036-0.078-0.040-0.092-0.028-0.098 0.008-0.004 0.112 0.008 0.23 0.025 0.296 0.044 0.774 0.094 0.782 0.082 0.018-0.028 0.132-0.716 0.294-1.776 0.316-2.075 0.572-3.444 0.813-4.343 0.171-0.64 0.246-0.864 0.676-2.016 0.272-0.73 0.426-1.247 0.509-1.717 0.078-0.436 0.098-1.038 0.055-1.622l-0.014-0.188 0.092-0.046c0.161-0.080 0.312-0.099 0.44-0.054 0.098 0.035 0.131 0.065 0.161 0.144 0.031 0.083 0.088 0.382 0.116 0.606 0.061 0.495 0.051 1.005-0.030 1.463-0.045 0.252-0.164 0.715-0.292 1.136-0.082 0.27-0.35 1.006-0.471 1.296-0.266 0.636-0.439 1.147-0.57 1.687-0.074 0.303-0.104 0.464-0.166 0.875-0.131 0.876-0.267 1.615-0.498 2.722-0.135 0.645-0.251 1.176-0.347 1.583-0.036 0.153-0.067 0.288-0.069 0.299-0.004 0.018 0.018 0.022 0.202 0.038 0.113 0.010 0.304 0.025 0.424 0.033 0.238 0.017 0.263 0.026 0.217 0.076-0.092 0.1-0.224 0.391-0.306 0.671-0.061 0.211-0.159 0.646-0.149 0.667 0.001 0.003 0.011 0.005 0.021 0.004 0.035-0.005 0.111 0.026 0.122 0.049 0.010 0.022 0.004 0.043-0.053 0.175-0.031 0.073-0.031 0.131 0 0.216 0.014 0.037 0.021 0.073 0.017 0.084-0.011 0.030-0.051 0.042-0.131 0.038-0.041-0.002-0.075-0.002-0.076 0-0.031 0.135-0.044 0.44-0.029 0.698 0.035 0.609 0.265 1.474 0.629 2.366 0.143 0.35 0.708 1.523 0.863 1.793 0.030 0.052 0.030 0.077 0.001 0.073s-0.081-0.042-0.164-0.122c-0.174-0.168-0.317-0.261-0.342-0.224-0.006 0.009-0.014 0.057-0.017 0.105-0.009 0.136-0.037 0.192-0.084 0.17-0.025-0.012-0.073-0.084-0.151-0.229-0.099-0.183-0.164-0.279-0.182-0.271-0.015 0.007-0.031 0.071-0.036 0.146-0.012 0.169-0.036 0.276-0.066 0.291-0.010 0.005-0.155-0.007-0.321-0.026l-0.303-0.035-0.021-0.037c-0.011-0.020-0.083-0.204-0.16-0.409s-0.146-0.381-0.153-0.393c-0.012-0.019-0.026 0.029-0.1 0.333-0.058 0.237-0.092 0.357-0.103 0.362-0.009 0.004-0.045 0.008-0.080 0.009s-0.137 0.005-0.227 0.009c-0.090 0.005-0.17 0.004-0.178-0.001-0.009-0.006-0.058-0.169-0.14-0.467-0.069-0.252-0.127-0.459-0.129-0.46s-0.012 0.203-0.021 0.454-0.021 0.463-0.025 0.472c-0.007 0.014-0.051 0.018-0.24 0.023-0.154 0.004-0.235 0.002-0.242-0.007-0.005-0.007-0.007-0.176-0.004-0.375s0.004-0.362 0.001-0.363c-0.003-0.001-0.108 0.168-0.234 0.375-0.149 0.245-0.237 0.38-0.252 0.387-0.037 0.017-0.244 0.042-0.26 0.032-0.010-0.006-0.040-0.098-0.092-0.285-0.043-0.152-0.079-0.284-0.080-0.294-0.008-0.049-0.021 0.017-0.060 0.312-0.027 0.202-0.049 0.325-0.058 0.329-0.013 0.006-0.643 0.112-0.73 0.123-0.022 0.003-0.036-0.002-0.041-0.012-0.004-0.009 0.068-0.248 0.17-0.557z"></path>
<path fill="#fff" d="M5.519 31.366c0.384-1.172 0.859-2.596 1.263-3.785 0.111-0.327 0.201-0.595 0.2-0.597s-0.025-0.012-0.054-0.023c-0.039-0.014-0.055-0.026-0.065-0.047-0.014-0.030-0.015-0.118-0.002-0.179 0.004-0.020 0.008-0.078 0.009-0.129s0.006-0.104 0.011-0.118c0.013-0.037 0.060-0.053 0.155-0.052 0.045 0 0.088-0.002 0.094-0.005 0.015-0.007 0.076-0.28 0.104-0.47 0.043-0.285 0.053-0.518 0.031-0.723-0.011-0.101-0.017-0.125-0.059-0.224-0.029-0.069-0.043-0.112-0.037-0.115s0.112 0.011 0.237 0.029c0.286 0.042 0.744 0.091 0.765 0.082 0.023-0.010 0.106-0.492 0.278-1.61 0.311-2.030 0.542-3.312 0.752-4.167 0.19-0.777 0.366-1.327 0.708-2.212 0.376-0.974 0.573-1.708 0.623-2.328 0.027-0.33 0.026-0.8-0.003-1.166-0.007-0.089-0.010-0.17-0.007-0.181 0.008-0.025 0.157-0.092 0.249-0.111 0.162-0.034 0.328 0.008 0.403 0.102 0.020 0.024 0.068 0.242 0.105 0.467 0.102 0.629 0.087 1.254-0.045 1.847-0.151 0.678-0.411 1.48-0.731 2.25-0.146 0.35-0.322 0.83-0.406 1.108-0.154 0.504-0.237 0.88-0.325 1.467-0.132 0.881-0.259 1.572-0.501 2.724-0.13 0.622-0.278 1.293-0.364 1.652-0.042 0.174-0.049 0.217-0.035 0.222 0.017 0.006 0.438 0.042 0.693 0.059 0.081 0.005 0.15 0.015 0.154 0.022s-0.007 0.029-0.023 0.049c-0.084 0.108-0.157 0.255-0.235 0.477-0.036 0.102-0.079 0.238-0.096 0.303-0.036 0.137-0.121 0.541-0.116 0.552 0.002 0.004 0.020 0.009 0.041 0.012 0.062 0.007 0.099 0.026 0.105 0.053 0.003 0.013-0.014 0.068-0.037 0.123-0.048 0.113-0.051 0.156-0.018 0.251 0.013 0.036 0.021 0.072 0.019 0.080-0.006 0.026-0.049 0.038-0.125 0.034-0.040-0.002-0.075-0.003-0.077-0.002s-0.011 0.051-0.019 0.111c-0.032 0.229-0.025 0.621 0.016 0.917 0.078 0.565 0.305 1.335 0.613 2.082 0.106 0.256 0.545 1.184 0.705 1.488 0.166 0.317 0.171 0.326 0.156 0.333-0.017 0.008-0.070-0.030-0.158-0.115-0.155-0.149-0.31-0.255-0.347-0.238-0.017 0.008-0.029 0.056-0.031 0.129-0.003 0.096-0.017 0.144-0.048 0.154-0.021 0.007-0.029 0.002-0.056-0.031-0.018-0.022-0.066-0.102-0.108-0.179-0.119-0.22-0.176-0.3-0.203-0.287-0.018 0.009-0.032 0.069-0.040 0.174-0.010 0.138-0.035 0.25-0.058 0.261-0.021 0.010-0.614-0.054-0.628-0.068-0.005-0.005-0.074-0.183-0.153-0.395-0.152-0.407-0.179-0.474-0.19-0.468-0.004 0.002-0.045 0.165-0.093 0.362s-0.092 0.361-0.1 0.365c-0.011 0.005-0.159 0.013-0.426 0.023-0.037 0.001-0.053-0.003-0.059-0.016-0.005-0.010-0.064-0.221-0.132-0.469s-0.128-0.458-0.134-0.467c-0.006-0.008-0.018 0.197-0.027 0.456s-0.020 0.479-0.023 0.489c-0.005 0.015-0.030 0.019-0.169 0.023-0.264 0.008-0.287 0.008-0.298-0.003-0.006-0.006-0.008-0.178-0.004-0.383s0.003-0.374-0.001-0.375c-0.004-0.001-0.114 0.174-0.245 0.39l-0.237 0.393-0.069 0.011c-0.169 0.027-0.191 0.029-0.2 0.015-0.005-0.008-0.048-0.15-0.095-0.316s-0.088-0.303-0.091-0.304c-0.003-0.001-0.026 0.147-0.051 0.33s-0.050 0.339-0.055 0.346c-0.006 0.010-0.121 0.033-0.359 0.072-0.399 0.066-0.396 0.065-0.403 0.050-0.003-0.006 0.078-0.267 0.181-0.579z"></path>
<path fill="#fff" d="M5.564 31.253c0.398-1.212 0.83-2.508 1.236-3.702 0.106-0.312 0.192-0.57 0.19-0.573s-0.026-0.013-0.054-0.023c-0.039-0.013-0.054-0.024-0.064-0.046-0.017-0.037-0.019-0.091-0.005-0.162 0.006-0.032 0.011-0.099 0.011-0.15-0-0.141 0.019-0.158 0.168-0.154 0.041 0.001 0.080-0.001 0.087-0.004 0.016-0.007 0.045-0.125 0.087-0.349 0.058-0.313 0.078-0.627 0.053-0.853-0.013-0.112-0.019-0.14-0.057-0.23-0.034-0.080-0.040-0.103-0.029-0.103 0.008-0 0.076 0.009 0.151 0.020 0.26 0.040 0.826 0.104 0.845 0.095s0.136-0.71 0.298-1.782c0.269-1.773 0.519-3.156 0.726-4.004 0.188-0.77 0.362-1.316 0.705-2.205 0.245-0.636 0.436-1.241 0.529-1.674 0.084-0.391 0.123-0.811 0.119-1.271-0.002-0.183-0.022-0.599-0.033-0.69-0.007-0.055 0.008-0.070 0.113-0.11 0.171-0.066 0.293-0.073 0.413-0.024 0.124 0.051 0.128 0.058 0.191 0.386 0.107 0.556 0.123 1.107 0.047 1.659-0.048 0.35-0.223 1.012-0.427 1.62-0.104 0.311-0.215 0.603-0.365 0.965-0.146 0.35-0.326 0.843-0.411 1.122-0.152 0.498-0.233 0.867-0.32 1.441-0.128 0.851-0.254 1.544-0.465 2.563-0.148 0.713-0.336 1.566-0.429 1.945-0.021 0.084-0.023 0.11-0.011 0.116 0.015 0.007 0.473 0.047 0.723 0.063 0.066 0.004 0.122 0.012 0.124 0.017s-0.017 0.039-0.044 0.076c-0.163 0.23-0.305 0.647-0.406 1.192l-0.022 0.117 0.027 0.005c0.072 0.013 0.112 0.028 0.121 0.047 0.006 0.014-0.004 0.053-0.034 0.124-0.024 0.057-0.044 0.119-0.045 0.137s0.010 0.067 0.024 0.109c0.038 0.112 0.027 0.124-0.105 0.115-0.038-0.003-0.071-0.003-0.074-0.002-0.012 0.006-0.036 0.221-0.041 0.362-0.018 0.545 0.083 1.121 0.332 1.896 0.178 0.556 0.34 0.95 0.668 1.634 0.209 0.436 0.352 0.72 0.475 0.944 0.037 0.068 0.044 0.085 0.034 0.090-0.017 0.008-0.052-0.018-0.154-0.116-0.177-0.17-0.329-0.265-0.357-0.223-0.011 0.017-0.021 0.073-0.030 0.18-0.006 0.067-0.022 0.102-0.045 0.099s-0.058-0.052-0.139-0.201c-0.096-0.176-0.172-0.291-0.198-0.3-0.019-0.007-0.022-0.005-0.036 0.021-0.008 0.016-0.022 0.088-0.030 0.162-0.024 0.214-0.031 0.242-0.061 0.251-0.029 0.008-0.597-0.053-0.61-0.066-0.005-0.005-0.077-0.19-0.16-0.412-0.162-0.433-0.178-0.472-0.189-0.467-0.004 0.002-0.047 0.168-0.096 0.369-0.050 0.206-0.095 0.368-0.103 0.372-0.013 0.006-0.401 0.027-0.442 0.024-0.009-0.001-0.022-0.009-0.028-0.018-0.008-0.013-0.202-0.701-0.268-0.952-0.004-0.017-0.010-0.024-0.015-0.020s-0.016 0.228-0.027 0.497-0.022 0.492-0.026 0.496c-0.007 0.006-0.343 0.020-0.418 0.018-0.017-0.001-0.033-0.006-0.036-0.013s-0.002-0.182 0.002-0.391c0.004-0.209 0.004-0.381 0-0.382s-0.117 0.179-0.252 0.401l-0.245 0.403-0.126 0.018c-0.121 0.018-0.126 0.017-0.137-0.006-0.006-0.013-0.048-0.154-0.092-0.313-0.089-0.321-0.090-0.324-0.101-0.302-0.004 0.008-0.027 0.164-0.052 0.346s-0.050 0.335-0.055 0.341c-0.005 0.006-0.16 0.035-0.343 0.065s-0.347 0.057-0.365 0.060c-0.018 0.003-0.035 0-0.038-0.006s0.095-0.315 0.217-0.687z"></path>
<path fill="#fff" d="M5.556 31.31c0.489-1.487 1.182-3.56 1.376-4.112 0.047-0.134 0.070-0.216 0.065-0.227-0.005-0.010-0.012-0.017-0.017-0.015-0.019 0.009-0.089-0.026-0.099-0.049-0.013-0.029-0.015-0.106-0.003-0.159 0.005-0.021 0.010-0.084 0.012-0.139s0.009-0.11 0.017-0.122c0.017-0.027 0.061-0.036 0.166-0.033 0.090 0.003 0.082 0.017 0.131-0.219 0.083-0.395 0.111-0.74 0.081-1.007-0.010-0.093-0.019-0.127-0.053-0.209-0.028-0.067-0.037-0.098-0.029-0.099 0.006-0 0.103 0.012 0.215 0.029 0.242 0.035 0.752 0.090 0.767 0.083 0.017-0.008 0.025-0.044 0.067-0.28 0.069-0.395 0.122-0.724 0.239-1.495 0.256-1.695 0.516-3.137 0.709-3.939 0.179-0.745 0.333-1.242 0.631-2.035 0.387-1.031 0.53-1.477 0.632-1.967 0.106-0.514 0.136-1.134 0.087-1.796-0.014-0.192-0.019-0.183 0.125-0.234 0.165-0.058 0.297-0.060 0.402-0.005 0.084 0.044 0.095 0.064 0.132 0.241 0.161 0.76 0.162 1.458 0.003 2.155-0.147 0.649-0.407 1.446-0.717 2.202-0.161 0.392-0.353 0.921-0.432 1.185-0.154 0.518-0.221 0.829-0.309 1.414-0.127 0.853-0.263 1.589-0.511 2.774-0.146 0.697-0.259 1.209-0.351 1.595-0.042 0.175-0.051 0.232-0.040 0.239 0.015 0.010 0.38 0.043 0.674 0.062 0.090 0.006 0.166 0.015 0.168 0.021s-0.002 0.017-0.010 0.024c-0.025 0.023-0.109 0.164-0.152 0.255-0.045 0.096-0.124 0.318-0.163 0.457-0.062 0.223-0.146 0.62-0.135 0.642 0.003 0.007 0.033 0.016 0.066 0.021 0.095 0.013 0.098 0.026 0.033 0.165-0.039 0.083-0.043 0.145-0.014 0.239s0.023 0.102-0.089 0.098c-0.043-0.001-0.081-0.001-0.086 0.001-0.027 0.013-0.053 0.402-0.044 0.648 0.024 0.633 0.256 1.526 0.638 2.459 0.153 0.374 0.529 1.16 0.797 1.666 0.038 0.072 0.069 0.134 0.068 0.14-0.001 0.014-0.032-0.012-0.151-0.124-0.128-0.12-0.189-0.166-0.261-0.199-0.089-0.040-0.112-0.014-0.116 0.128-0.003 0.103-0.030 0.163-0.058 0.131-0.025-0.027-0.089-0.131-0.115-0.187-0.037-0.079-0.154-0.266-0.179-0.288-0.049-0.042-0.082-0.004-0.094 0.108-0.026 0.239-0.039 0.304-0.061 0.315-0.012 0.006-0.565-0.053-0.591-0.063-0.011-0.004-0.057-0.117-0.18-0.447-0.091-0.243-0.169-0.444-0.173-0.447s-0.012-0.002-0.018 0.003c-0.006 0.005-0.051 0.174-0.1 0.377s-0.094 0.371-0.1 0.374c-0.006 0.003-0.056 0.006-0.112 0.008s-0.154 0.006-0.219 0.009c-0.082 0.005-0.121 0.002-0.125-0.008-0.004-0.008-0.065-0.229-0.137-0.491s-0.135-0.487-0.141-0.5c-0.007-0.014-0.015-0.020-0.020-0.015s-0.017 0.233-0.028 0.507-0.021 0.504-0.023 0.51c-0.004 0.011-0.402 0.027-0.428 0.018-0.009-0.003-0.011-0.121-0.007-0.385 0.006-0.351 0.004-0.417-0.014-0.409-0.004 0.002-0.118 0.186-0.254 0.409l-0.247 0.406-0.062 0.010c-0.172 0.027-0.178 0.027-0.185 0.012-0.004-0.008-0.047-0.157-0.095-0.331s-0.093-0.317-0.098-0.319c-0.005-0.002-0.012 0.001-0.016 0.007s-0.027 0.159-0.051 0.34c-0.024 0.181-0.048 0.34-0.052 0.353-0.008 0.023-0.017 0.025-0.358 0.082-0.192 0.032-0.357 0.057-0.365 0.057-0.011-0.001 0.041-0.174 0.189-0.625z"></path>
<path fill="#fff" d="M10.777 14.831l-0.304 1.741h2.299c2.161 0 3.656 0.489 4.484 1.468 0.837 0.972 1.073 2.507 0.706 4.605-0.369 2.112-1.142 3.657-2.32 4.636-1.171 0.979-2.837 1.468-4.997 1.468h-2.299l-0.3 1.719h-2.379l-0.004 0.022h4.353c3.021 0 5.355-0.633 7.002-1.898s2.707-3.248 3.178-5.947c0.469-2.685 0.103-4.657-1.096-5.916-1.198-1.266-3.315-1.898-6.35-1.898z"></path>
<path fill="#fff" d="M11.451 0.182c-0.072-0-0.069 0.079-0.056 0.152 0.096 0.211 0.391 0.457 0.766 0.724 0.44 0.226 0.649 0.617 0.902 0.976 0.796 0.94-0.092 0.211 1.048 2.358l0.055-0 0.789-1.161 0.442 1.332 1.348 0.391-1.13 0.832 0.044 1.403-1.14-0.818-0.308 0.111c0.163 0.745 0.373 0.78-0.013 1.031-0.367 0.308-0.595 0.755-0.745 1.28-0.035 0.621-0.435 0.581-0.965 0.85-0.585 0.424-0.838 1.457-1.207 2.277-0.626 0.071-1.086 0.324-1.563 0.556-0.438 0.21-0.88 0.398-1.291 0.756-0.239 0.149-0.792 0.405-0.693 0.439l0.073 0.16-0.42 0.451 0.304 0.787c0.676 0.811 1.711 1.088 2.655 1.501 0.786 0.319 1.458 0.552 2.188 0.703 0.854 0.221 1.073 0.464 2.692 0.672l0.557 0.126c0.305 0.050 0.563 0.074 0.629-0.015 0.644 0.119 1.205 0.061 1.752-0.027 0.776-0.16 1.558-0.31 2.225-0.619 0.584-0.345 1.020-0.763 1.469-1.175 0.303-0.413 0.462-0.773 0.262-1.259-0.151-0.47-1.798-1.897-3.591-2.408 0.069-0.214 0.132-0.442 0.159-0.74-0.024-0.245-0.039-0.441-0.049-0.615l-0.69-0.495-1.32 0.475 0.426-1.337-0.86-1.109 1.403-0.008 0.538-0.792c-0.133-0.7-0.278-1.554-0.434-2.038-0.207-0.71 0.005-1.073-1.102-2.529-0.542-0.452-1.027-0.953-1.595-1.322-1.229-0.554-1.674-0.892-1.674-0.892-0.638-0.255-1.557-0.754-1.653-0.876-0.113-0.076-0.184-0.105-0.227-0.105zM13.685 10.801l0.442 1.332 1.348 0.392-1.13 0.832 0.044 1.403-1.14-0.818-1.32 0.476 0.426-1.337-0.86-1.109 1.403-0.008z"></path>
<path fill="#fff" d="M11.514 0.165c-0.046-0.016-0.084-0.017-0.113 0.001s-0.039 0.050-0.041 0.081c-0.002 0.030 0.002 0.062 0.007 0.093l0 0.004 0.002 0.004c0.101 0.224 0.4 0.468 0.776 0.736l0.002 0.001 0.002 0.001c0.431 0.222 0.637 0.606 0.892 0.967l0.001 0.001 0.001 0.001c0.199 0.234 0.291 0.364 0.335 0.457s0.043 0.15 0.053 0.254c0.020 0.207 0.085 0.568 0.658 1.646 0.176 0.331 0.264 0.508 0.296 0.609 0.016 0.050 0.018 0.080 0.014 0.1s-0.015 0.035-0.034 0.056c-0.039 0.043-0.106 0.107-0.156 0.261s-0.084 0.399-0.071 0.818v0.002l0 0.002c0.082 0.489 0.197 0.74 0.236 0.894 0.019 0.077 0.020 0.124-0.005 0.171s-0.082 0.097-0.186 0.165l-0.002 0.001-0.001 0.001c-0.374 0.313-0.603 0.767-0.754 1.295l-0.001 0.003-0 0.003c-0.017 0.304-0.118 0.436-0.283 0.534s-0.399 0.156-0.667 0.292l-0.002 0.001-0.002 0.001c-0.3 0.218-0.511 0.587-0.694 1.002-0.181 0.412-0.336 0.869-0.517 1.274-0.622 0.075-1.083 0.325-1.555 0.554-0.437 0.209-0.882 0.399-1.297 0.76l0.004-0.003c-0.117 0.073-0.316 0.175-0.472 0.262-0.078 0.044-0.146 0.084-0.19 0.116-0.022 0.016-0.038 0.029-0.049 0.048-0.005 0.009-0.010 0.023-0.005 0.038 0.002 0.006 0.008 0.007 0.012 0.011l0.065 0.142-0.419 0.451 0.313 0.808 0.003 0.004c0.683 0.82 1.724 1.097 2.665 1.509l0 0h0c0.787 0.319 1.461 0.553 2.193 0.705 0.849 0.219 1.073 0.464 2.694 0.672l0.556 0.126c0.153 0.025 0.294 0.044 0.408 0.045 0.057 0 0.107-0.003 0.149-0.014 0.033-0.008 0.057-0.026 0.079-0.046 0.645 0.118 1.208 0.060 1.753-0.027l0.001-0h0c0.775-0.16 1.559-0.31 2.231-0.621l0.001-0.001 0.001-0c0.588-0.347 1.026-0.767 1.474-1.179l0.002-0.002 0.001-0.002c0.153-0.208 0.271-0.404 0.325-0.612s0.043-0.427-0.058-0.674c-0.041-0.128-0.174-0.305-0.379-0.514s-0.482-0.448-0.811-0.689c-0.651-0.476-1.503-0.955-2.395-1.214 0.067-0.209 0.128-0.43 0.155-0.719l0-0.003-0-0.003c-0.063-0.635-0.072-1.005-0.068-1.237s0.021-0.328 0.005-0.42l-0-0.003-0.001-0.002c-0.238-0.668-0.227-0.822-0.266-1.254l-0-0.004-0.001-0.004c-0.093-0.263-0.196-0.823-0.305-1.41s-0.226-1.202-0.35-1.589v-0.001c-0.204-0.702 0.002-1.080-1.106-2.538l-0.002-0.003-0.003-0.002c-0.54-0.451-1.026-0.953-1.598-1.324l-0.002-0.001-0.002-0.001c-1.228-0.554-1.668-0.889-1.668-0.889l-0.003-0.002-0.004-0.002c-0.317-0.127-0.706-0.315-1.027-0.486-0.16-0.086-0.303-0.167-0.412-0.235-0.054-0.034-0.1-0.064-0.135-0.089s-0.059-0.047-0.067-0.057l-0.003-0.004-0.004-0.003c-0.076-0.052-0.135-0.082-0.181-0.098zM11.432 0.216c0.007-0.004 0.025-0.008 0.063 0.005s0.093 0.042 0.167 0.091l-0.007-0.006c0.016 0.020 0.042 0.041 0.078 0.068s0.083 0.057 0.138 0.091c0.11 0.068 0.255 0.15 0.416 0.236 0.321 0.171 0.707 0.359 1.027 0.487 0.002 0.001 0.449 0.34 1.674 0.893 0.562 0.366 1.047 0.864 1.589 1.316 1.103 1.451 0.887 1.801 1.096 2.518v0l0 0c0.122 0.379 0.239 0.995 0.348 1.583 0.109 0.585 0.21 1.137 0.306 1.412 0 0-0 0.001 0 0.002 0.039 0.428 0.031 0.598 0.269 1.264 0.013 0.078-0.002 0.173-0.006 0.407s0.004 0.607 0.067 1.24c-0.028 0.294-0.089 0.519-0.158 0.732l-0.009 0.029 0.029 0.008c0.892 0.255 1.749 0.738 2.402 1.215 0.326 0.239 0.601 0.476 0.803 0.683s0.332 0.384 0.366 0.491l0 0.001 0 0.001c0.098 0.238 0.107 0.441 0.056 0.638s-0.164 0.386-0.314 0.59c-0.448 0.411-0.882 0.827-1.461 1.168-0.662 0.306-1.442 0.457-2.217 0.617-0.546 0.087-1.102 0.145-1.741 0.027l-0.018-0.003-0.011 0.015c-0.011 0.014-0.033 0.027-0.067 0.036s-0.080 0.012-0.134 0.012c-0.108-0.001-0.248-0.019-0.4-0.044l-0.559-0.127c-1.616-0.208-1.83-0.449-2.688-0.671h-0.001l-0-0c-0.727-0.151-1.397-0.383-2.182-0.701l-0.001-0c-0.945-0.413-1.973-0.69-2.641-1.49l-0.295-0.764 0.421-0.452-0.083-0.181c0.005-0.005 0.010-0.012 0.025-0.023 0.039-0.029 0.106-0.069 0.183-0.112 0.155-0.086 0.353-0.187 0.475-0.263l0.002-0.001 0.002-0.002c0.407-0.354 0.846-0.541 1.284-0.751 0.479-0.233 0.934-0.483 1.554-0.553l0.016-0.002 0.007-0.015c0.185-0.412 0.341-0.875 0.523-1.287s0.389-0.771 0.674-0.978c0.26-0.132 0.491-0.188 0.667-0.292s0.293-0.264 0.311-0.581l-0.001 0.006c0.149-0.522 0.375-0.963 0.736-1.265l-0.003 0.002c0.107-0.069 0.172-0.123 0.206-0.186s0.031-0.131 0.010-0.213c-0.042-0.164-0.153-0.406-0.234-0.887-0.012-0.414 0.022-0.653 0.068-0.797s0.101-0.192 0.143-0.239c0.021-0.024 0.041-0.049 0.048-0.083s0.002-0.075-0.015-0.131c-0.036-0.111-0.124-0.287-0.3-0.618-0.571-1.074-0.631-1.423-0.651-1.624-0.010-0.101-0.010-0.171-0.058-0.273s-0.144-0.234-0.342-0.468l-0.001-0.002c-0.252-0.356-0.464-0.753-0.912-0.983l0.004 0.002c-0.373-0.265-0.664-0.512-0.754-0.71-0.004-0.027-0.007-0.053-0.006-0.073 0.002-0.021 0.007-0.032 0.014-0.036z"></path>
</svg>
